<?xml version="1.0" standalone="no"?>
<!DOCTYPE svg PUBLIC "-//W3C//DTD SVG 20010904//EN"
 "http://www.w3.org/TR/2001/REC-SVG-20010904/DTD/svg10.dtd">
<svg version="1.0" xmlns="http://www.w3.org/2000/svg"
 width="700.000000pt" height="700.000000pt" viewBox="0 0 700.000000 700.000000"
 preserveAspectRatio="xMidYMid meet">
<metadata>
Created by potrace 1.11, written by Peter Selinger 2001-2013
</metadata>
<g transform="translate(0.000000,700.000000) scale(0.100000,-0.100000)"
fill="#000000" stroke="none">
<path d="M3540 6010 c-532 -31 -947 -159 -1285 -399 -43 -31 -128 -103 -188
-161 -414 -398 -619 -975 -644 -1810 -20 -701 106 -1327 351 -1744 302 -512
816 -797 1581 -877 150 -16 629 -16 795 0 321 30 647 86 805 137 169 56 295
137 351 226 56 88 55 67 52 1184 -3 1151 2 1067 -75 1146 -69 71 -38 69 -919
66 l-789 -3 -34 -24 c-71 -51 -101 -179 -101 -431 0 -268 33 -391 115 -437 39
-22 47 -23 378 -23 l337 0 0 -444 0 -444 -22 -5 c-53 -14 -277 -37 -410 -43
-403 -18 -697 75 -914 291 -199 198 -314 468 -371 876 -22 157 -25 649 -5 809
65 520 232 844 533 1029 96 59 209 102 351 133 91 20 130 23 343 22 202 0 260
-4 365 -22 177 -31 326 -72 496 -137 81 -30 161 -55 178 -55 137 0 411 386
442 621 5 35 2 62 -10 94 -97 254 -957 468 -1706 425z"/>
</g>
</svg>
